<svg width="216" height="156" viewBox="0 0 216 156" fill="none" xmlns="http://www.w3.org/2000/svg">
<path fill-rule="evenodd" clip-rule="evenodd" d="M102.809 27.5344C102.222 22.7703 99.9466 18.4084 95.4608 14.8957C81.5838 4.02977 66.8309 6.18382 53.5294 14.5798C34.1073 26.8399 17.8494 52.5932 12.4188 69.0899C12.1607 69.8709 12.5872 70.7112 13.3661 70.9663C14.1471 71.2244 14.9894 70.8008 15.2475 70.0197C20.5174 54.0079 36.2709 28.9951 55.1195 17.0952C67.3332 9.38638 80.8812 7.25946 93.6256 17.2413C97.4207 20.2094 99.3287 23.8969 99.8349 27.9236C97.2085 28.2949 94.6272 28.7355 92.0962 29.2463C85.11 30.6583 67.8944 37.6223 58.0557 46.6786C50.9997 53.1769 47.7379 60.7403 53.3475 68.1422C56.4664 72.2556 61.254 73.4172 66.7419 72.2936C74.2877 70.7532 83.2485 64.7657 90.3487 56.9558C96.2613 50.4545 100.88 42.7088 102.409 35.3198C102.742 33.6951 102.935 32.0876 102.961 30.5119C139.484 26.0539 183.122 35.122 213.086 55.0761C213.771 55.5282 214.694 55.3468 215.149 54.6602C215.607 53.9767 215.42 53.0522 214.739 52.5979C184.285 32.3207 139.972 23.0661 102.809 27.5344ZM99.9609 30.9105C97.4934 31.2649 95.0667 31.6826 92.6858 32.1644C85.9915 33.5196 69.4998 40.1912 60.0735 48.8688C54.2878 54.1933 51.1221 60.2787 55.7193 66.3454C58.1356 69.53 61.8961 70.2448 66.1462 69.3798C70.8206 68.4234 76.0496 65.5909 80.9813 61.6731C88.4686 55.725 95.2613 47.2669 98.3143 38.832C99.2828 36.1603 99.8689 33.49 99.9609 30.9105Z" fill="url(#paint0_linear_208_4)"/>
<path fill-rule="evenodd" clip-rule="evenodd" d="M157.988 61.8265C173.959 54.0677 195.77 52.5107 213.442 55.0156C214.254 55.1309 215.008 54.5635 215.123 53.7508C215.238 52.9381 214.674 52.1829 213.861 52.0676C195.638 49.4823 173.154 51.1516 156.688 59.1491C155.951 59.5065 155.642 60.3977 156.002 61.1381C156.359 61.8753 157.251 62.1839 157.988 61.8265Z" fill="#FBFBFB"/>
<path fill-rule="evenodd" clip-rule="evenodd" d="M214.004 51.7286C200.568 45.5649 188.273 30.1504 182.931 16.3193C182.635 15.5518 181.772 15.1672 181.007 15.4662C180.24 15.7621 179.858 16.6222 180.154 17.3897C185.751 31.8792 198.687 47.9756 212.764 54.4334C213.509 54.7771 214.395 54.4471 214.739 53.7017C215.081 52.9533 214.753 52.0701 214.004 51.7286Z" fill="#FBFBFB"/>
<defs>
<linearGradient id="paint0_linear_208_4" x1="179.02" y1="2.59252" x2="-10.7836" y2="94.9952" gradientUnits="userSpaceOnUse">
<stop stop-color="#FBFBFB"/>
<stop offset="1" stop-color="#FBFBFB" stop-opacity="0"/>
</linearGradient>
</defs>
</svg>
